<?xml version="1.0" encoding="UTF-8"?>
<!DOCTYPE svg PUBLIC "-//W3C//DTD SVG 1.1//EN" "http://www.w3.org/Graphics/SVG/1.1/DTD/svg11.dtd">
<!-- Creator: CorelDRAW 2021.5 -->
<svg xmlns="http://www.w3.org/2000/svg" xml:space="preserve" width="4.68209in" height="4.68221in" version="1.1" style="shape-rendering:geometricPrecision; text-rendering:geometricPrecision; image-rendering:optimizeQuality; fill-rule:evenodd; clip-rule:evenodd"
viewBox="0 0 1384.12 1384.16"
 xmlns:xlink="http://www.w3.org/1999/xlink"
 xmlns:xodm="http://www.corel.com/coreldraw/odm/2003">
 <defs>
  <style type="text/css">
   <![CDATA[
    .fil0 {fill:#FFF212}
    .fil1 {fill:black}
   ]]>
  </style>
 </defs>
 <g id="Layer_x0020_1">
  <metadata id="CorelCorpID_0Corel-Layer"/>
  <path class="fil0" d="M384.8 999.39c-51.14,-5.75 -79.63,-8.44 -122.86,-29.24 -31.37,-15.1 -65.7,-38.05 -89.46,-62.67 -24.82,-25.72 -46,-57.33 -61.2,-90.93 -52.18,-115.35 -24.82,-252.24 62.19,-340.69l41.52 -34.52c16.23,-10.79 28.73,-18.32 48.3,-27.8 18.18,-8.8 35.96,-14.57 56.37,-19.76 8.51,-2.16 63.54,-8.99 64.26,-9.71 0.92,-0.92 3.49,-159.86 134.9,-245.4 111.71,-72.71 236.28,-71.99 347.63,0.79 13.85,9.05 31.69,24.12 41.89,34.16 7.12,7 10.98,12.77 17.89,20.12 5.53,5.89 11.68,13.97 16.63,21.39 41.33,61.98 48.02,94.34 56.38,169.83 51.63,6.15 78.96,8.12 122.87,29.24 19,9.14 32.49,17.33 48.17,27.94l41.33 34.68c82.09,84.82 115.67,219.45 60.54,341.1 -14.79,32.64 -36.9,65.5 -61.56,90.57 -7.01,7.12 -12.77,10.98 -20.12,17.89 -30.96,29.08 -84.14,53.49 -126.07,64.18 -8.48,2.16 -63.55,9 -64.26,9.71 -0.61,0.62 -7.85,57.17 -10.13,65.9 -14.04,53.68 -43.45,107.67 -82.66,145.54 -25.65,24.77 -57.41,46.04 -90.93,61.2 -37.11,16.78 -79.51,26.54 -124.38,26.54 -97.63,-0.01 -197.86,-50.57 -250.83,-130.25 -42.5,-63.93 -47.13,-93.15 -56.39,-169.81zm278.27 -980.14c-73.14,6.09 -156.79,37.36 -210.27,85.43 -9.14,8.22 -14.29,10.56 -21.89,20.13 -4.1,5.17 -19.14,17.77 -29.82,32.23 -43.51,58.9 -56.44,86.1 -74.65,157.38 -3.71,14.53 -14.34,12.33 -28.42,15.88 -42.67,10.74 -85.31,31.01 -115.9,52.15 -104.72,72.37 -175.26,198.12 -163.09,339.73 6.21,72.29 37.94,156.31 85.5,209.21 8.21,9.14 10.57,14.3 20.13,21.9 8.66,6.88 5.79,7.8 21.55,20.52l23.29 18.75c47.71,35.9 88.27,50.95 144.78,65.18 14.5,3.65 12.28,14.34 15.83,28.46 43.86,174.71 213.44,294.38 392.06,279.01 71.34,-6.14 130.5,-29.52 185.24,-67.33 34.92,-24.11 35.5,-31.01 55.94,-48.13 16.73,-14.02 52.53,-68.83 61.32,-86.87 19.98,-41.02 22.46,-51.3 32.96,-92.94 3.66,-14.52 14.27,-12.3 28.39,-15.89 84.47,-21.46 151.08,-68.98 202.42,-133.74 47.63,-60.07 85.27,-156.68 76.56,-258.19 -6.24,-72.67 -37.92,-155.92 -85.55,-209.11 -8.32,-9.29 -10.5,-13.95 -20.14,-21.89 -3.95,-3.25 -17.5,-19.05 -32.16,-29.88 -41.81,-30.88 -71.62,-49.75 -124,-66.14 -49.92,-15.62 -40.39,-1.24 -49.23,-36.94 -15.13,-61.14 -42.41,-106.88 -79.38,-150.67l-31.29 -32.76c-8.15,-6.39 -13.9,-11.67 -23.1,-18.97 -59.96,-47.55 -156.07,-84.9 -257.08,-76.5z"/>
  <path class="fil1" d="M663.07 19.26c101.01,-8.4 197.12,28.94 257.08,76.5 9.2,7.3 14.95,12.58 23.1,18.97l31.29 32.76c36.97,43.8 64.25,89.54 79.38,150.67 8.84,35.7 -0.7,21.32 49.23,36.94 52.39,16.39 82.2,35.26 124,66.14 14.66,10.83 28.21,26.63 32.16,29.88 9.64,7.93 11.82,12.6 20.14,21.89 47.64,53.18 79.31,136.44 85.55,209.11 8.71,101.51 -28.93,198.12 -76.56,258.19 -51.35,64.75 -117.96,112.28 -202.42,133.74 -14.12,3.59 -24.73,1.36 -28.39,15.89 -10.51,41.64 -12.99,51.92 -32.96,92.94 -8.79,18.04 -44.58,72.86 -61.32,86.87 -20.44,17.12 -21.02,24.02 -55.94,48.13 -54.74,37.8 -113.9,61.19 -185.24,67.33 -178.62,15.37 -348.2,-104.3 -392.06,-279.01 -3.55,-14.13 -1.33,-24.81 -15.83,-28.46 -56.51,-14.23 -97.07,-29.28 -144.78,-65.18l-23.29 -18.75c-15.76,-12.71 -12.89,-13.63 -21.55,-20.52 -9.56,-7.6 -11.91,-12.76 -20.13,-21.9 -47.56,-52.89 -79.29,-136.92 -85.5,-209.21 -12.17,-141.61 58.37,-267.36 163.09,-339.73 30.59,-21.14 73.23,-41.4 115.9,-52.15 14.08,-3.55 24.71,-1.35 28.42,-15.88 18.21,-71.28 31.15,-98.48 74.65,-157.38 10.68,-14.45 25.71,-27.06 29.82,-32.23 7.6,-9.57 12.75,-11.91 21.89,-20.13 53.47,-48.07 137.12,-79.34 210.27,-85.43zm-354.82 1056.68c7.01,14.93 13.2,45.61 21.09,64.98 115.65,284.04 514.06,339.49 695.55,58.27 16.43,-25.46 31.63,-59.08 40.97,-89.13 16.1,-51.76 -4.17,-26.9 59.06,-49.05 40.77,-14.28 94.34,-44.66 122.41,-71.71 11.86,-11.43 21.56,-17.57 32.78,-31.27 33.87,-41.35 51.83,-60.35 75.97,-120.17 41.2,-102.1 37.14,-220.04 -13.16,-320.14 -14.8,-29.45 -33.43,-57.92 -51.43,-78.78 -34.76,-40.28 -84.22,-82.31 -149.3,-108.85 -15.57,-6.35 -30.65,-11.63 -47.72,-16.22 -26.3,-7.07 -15.96,1.84 -28.14,-38.04 -9.61,-31.48 -25.04,-65.01 -40.65,-89.44 -8.61,-13.47 -17.93,-27.2 -26.36,-37.7 -73.68,-91.72 -183.65,-148.65 -307.3,-148.66 -97.09,-0.01 -171.05,31.55 -239.76,82.13l-35.6 30.46c-9.94,9.65 -20.86,22.58 -30.13,33.91 -34.67,42.37 -62.1,97.23 -75.16,152.92 -4.28,18.26 -14.59,8.3 -68.1,30.08 -92.63,37.71 -159.86,105.11 -201.49,186.88 -14.73,28.93 -26.61,61.31 -33.83,96.21 -22.35,108.05 3.29,223.07 65.41,307.96l28.77 35.24c12.2,14.93 20.37,19.96 33.58,32.52 29.49,28.05 80.45,57.44 121.92,72.19 14.38,5.12 38.32,9.67 50.61,15.45z"/>
  <path class="fil0" d="M687.7 467.16c25.35,-11.09 33.68,81.51 36.45,100.84 9.49,66.03 20.89,193.22 19.79,258.34 -0.36,21.16 -5.22,39.51 -14.33,55.55 -5.21,9.17 -23.02,31.45 -33.21,34.89 -17.9,6.03 -53.01,-38.27 -55.88,-81.06 -3.8,-56.73 16.73,-355.25 47.17,-368.56zm-3 -47.48c-35.37,11.55 -71.44,69.87 -88.95,112.22 -44.4,107.37 -42.62,227.49 5.6,332.95 10.35,22.64 24.91,47.23 37.77,62.36 9.12,10.73 35.3,45.89 61.43,37.83 19.39,-5.98 42.17,-33.18 52.23,-47.97 78.78,-115.95 88.39,-269.63 29.9,-397.55 -10.08,-22.03 -25.26,-47.92 -37.65,-62.46 -12.46,-14.63 -37.21,-44.91 -60.33,-37.36z"/>
  <path class="fil1" d="M401.89 984.09c-18.41,-8.28 -87.5,4.27 -170.55,-51.4 -19.24,-12.89 -35.81,-28.69 -51.01,-43.04 -3.59,-3.39 -4.94,-6.01 -8.06,-10.02 -43.44,-55.92 -69.51,-108.4 -69.51,-187.45 0,-68.27 22.7,-128.06 62.05,-178.92 11.21,-14.49 20.29,-21.15 26.11,-27.97 9.64,-11.3 27.05,-24.68 40.42,-33.63 30.24,-20.26 67.88,-35.8 105.25,-43.13 10.91,-2.14 60.66,-4.8 63.82,-7.96 3.04,-3.04 6.1,-54.69 8.3,-65.51 4.07,-19.95 10.07,-39.25 17.64,-56.66 22.57,-51.9 37.48,-64.23 69.24,-98.88 14.04,-15.31 56.6,-41.24 77.33,-50.85 128,-59.31 284.66,-11.72 360.4,104.03 8.68,13.26 18.39,31.26 25.67,48.43 7.77,18.32 12.86,36.88 16.94,57 3.58,17.64 3.08,52.97 8,63.91 19.91,3.84 43.57,2.19 67.2,7.28 51.7,11.15 95.22,34.12 134.49,67.5l43.04 49.01c9.92,13.2 18.84,30.34 26.89,47.21 16.46,34.5 26.02,78.87 25.71,121.12 -0.32,44.05 -10.94,86.08 -27.77,121.1 -17.63,36.7 -22.95,39.38 -43.32,66.82 -6.07,8.18 -11.7,10.52 -17.96,18.07 -28.58,34.47 -97.89,66.45 -144.78,75.65 -14.13,2.77 -56.74,3.31 -63.6,8.19 -4.85,6.82 -5.66,51.17 -8.53,65.28 -4.16,20.44 -10.05,38.77 -17.6,56.71 -7.12,16.94 -16.96,34.48 -26.14,47.92 -5.08,7.43 -9.78,14 -15.43,20.57l-56.71 53.41c-84.05,59.08 -195.93,71.48 -289.24,26.52 -24.44,-11.77 -37.09,-19.56 -57.11,-35.03 -14.47,-11.19 -21.18,-20.32 -27.97,-26.11 -23.15,-19.74 -46.17,-58.76 -58.88,-87.26 -25.37,-56.88 -17.29,-85.21 -24.36,-121.92zm-17.09 15.3c9.26,76.66 13.88,105.88 56.39,169.81 52.97,79.68 153.2,130.24 250.83,130.25 44.87,0 87.27,-9.76 124.38,-26.54 33.52,-15.16 65.29,-36.43 90.93,-61.2 39.2,-37.86 68.61,-91.86 82.66,-145.54 2.28,-8.73 9.52,-65.28 10.13,-65.9 0.71,-0.71 55.79,-7.55 64.26,-9.71 41.92,-10.69 95.11,-35.1 126.07,-64.18 7.35,-6.91 13.11,-10.77 20.12,-17.89 24.67,-25.07 46.77,-57.93 61.56,-90.57 55.13,-121.65 21.55,-256.29 -60.54,-341.1l-41.33 -34.68c-15.68,-10.61 -29.17,-18.8 -48.17,-27.94 -43.91,-21.11 -71.23,-23.09 -122.87,-29.24 -8.35,-75.49 -15.05,-107.84 -56.38,-169.83 -4.95,-7.42 -11.1,-15.5 -16.63,-21.39 -6.91,-7.35 -10.77,-13.11 -17.89,-20.12 -10.21,-10.04 -28.05,-25.11 -41.89,-34.16 -111.35,-72.78 -235.92,-73.5 -347.63,-0.79 -131.4,85.54 -133.98,244.48 -134.9,245.4 -0.72,0.72 -55.75,7.55 -64.26,9.71 -20.41,5.19 -38.19,10.96 -56.37,19.76 -19.56,9.47 -32.07,17.01 -48.3,27.8l-41.52 34.52c-87.01,88.45 -114.38,225.34 -62.19,340.69 15.2,33.6 36.38,65.22 61.2,90.93 23.76,24.62 58.08,47.57 89.46,62.67 43.23,20.8 71.72,23.49 122.86,29.24z"/>
  <path class="fil1" d="M684.71 419.67c23.12,-7.55 47.87,22.73 60.33,37.36 12.38,14.55 27.57,40.43 37.65,62.46 58.49,127.92 48.88,281.61 -29.9,397.55 -10.05,14.79 -32.84,41.99 -52.23,47.97 -26.13,8.06 -52.31,-27.1 -61.43,-37.83 -12.86,-15.13 -27.42,-39.72 -37.77,-62.36 -48.22,-105.46 -50,-225.58 -5.6,-332.95 17.51,-42.35 53.58,-100.67 88.95,-112.22zm137.92 388.57c20.54,-96.5 20.53,-135.67 0,-232.14 16.69,5.35 40.51,30.76 48.97,44.55 27.87,45.4 27.81,99.18 -0.77,144.27 -8.42,13.29 -31.99,38.12 -48.2,43.32zm-261.21 -0.01c-16.67,-5.31 -40.52,-30.78 -48.97,-44.55 -27.88,-45.4 -27.81,-99.16 0.77,-144.26 8.43,-13.29 31.98,-38.12 48.19,-43.32 -20.5,96.31 -20.55,135.79 0,232.13zm247.6 43.08c2.08,-23.11 16.3,-22.09 32.07,-32.11 40.39,-25.67 69.4,-73.22 69.4,-127.02 0,-38.71 -17.05,-76.86 -35.45,-96.97 -44.84,-49.01 -63.27,-31.55 -66.06,-62.2 61.52,17.07 117.53,79.98 117.53,159.17 -0,80.19 -55.71,141.05 -117.48,159.14zm-233.93 0.03c-61.63,-17.31 -117.51,-79.9 -117.51,-159.17 0,-79.3 55.85,-141.83 117.51,-159.17 -2.18,23.07 -16.25,22.12 -32.07,32.19 -40.39,25.73 -69.48,73.18 -69.46,126.98 0.01,54.61 29.76,102.3 70.65,127.8 16.07,10.02 28.71,8.45 30.88,31.37zm108.38 -450.48c-37.65,8.45 -68.01,55.18 -85.41,85.24 -2.77,4.79 -9.32,19.24 -11.68,22.3 -3.3,4.26 -40.17,15.72 -48.12,20.01 -146.78,79.23 -118.8,280.43 13.71,333.79 38.78,15.61 27.81,1.67 41.16,27.01 17.49,33.18 62.22,103.89 107.94,94.19 53.09,-11.27 88.9,-97.7 96.53,-107.54 3.47,-4.47 40.01,-15.63 48.13,-20.05 144.07,-78.31 122.26,-277.29 -13.68,-333.64 -38.41,-15.92 -27.43,-1.07 -41.12,-27.06 -17.29,-32.81 -62.92,-104.27 -107.47,-94.26z"/>
  <path class="fil1" d="M692.02 897.53c-22.91,-15.71 -34.21,-42.7 -33.69,-83.26 0.75,-58.24 15.94,-286.89 33.69,-318.09 17.54,30.63 33.05,259.92 33.71,320.09 0.44,39.52 -11.58,66.16 -33.71,81.26zm-4.31 -430.38c-30.44,13.31 -50.97,311.83 -47.17,368.56 2.87,42.79 37.98,87.09 55.88,81.06 10.19,-3.43 28,-25.71 33.21,-34.89 9.11,-16.04 13.97,-34.4 14.33,-55.55 1.1,-65.12 -10.31,-192.31 -19.79,-258.34 -2.78,-19.33 -11.1,-111.93 -36.45,-100.84z"/>
  <path class="fil1" d="M513.96 400.27l0.03 -106 79.61 65.64 -79.63 40.36zm-18.32 -120.43c0,22.25 -2.41,128.76 2.19,142.16 13.26,4.78 48.34,-17.55 61.84,-24.3 19.26,-9.63 41.95,-19.56 60.31,-31.04 0.47,-14.63 -9.93,-16.89 -27.18,-31.64 -11.52,-9.85 -21.72,-17.75 -32.75,-27.28l-49.73 -40.7c-12.01,-6.12 -14.68,2.27 -14.68,12.8z"/>
  <path class="fil1" d="M294.1 514.12l106.03 -0.05 -40.37 79.67 -65.65 -79.62zm72.4 106.01c11.28,-17.98 20.78,-39.83 30.36,-59 5.28,-10.55 10.04,-20.09 15.35,-30.69 5.68,-11.33 13.81,-20.86 9.63,-32.47 -13.92,-4.78 -119.12,-2.19 -142.16,-2.19 -9.68,0 -17.75,1.74 -13.51,13.23 0.54,1.47 12.21,15.64 13.45,17.08l54.28 65.81c15.28,17.62 17.91,28.69 32.58,28.22z"/>
  <path class="fil1" d="M513.96 984.09l79.63 40.35 -79.81 65.7 0.17 -106.05zm-18.31 82.38c0,8.93 -2.87,45.5 4.01,50.53 8.18,5.98 27.38,-12.96 37.32,-21.48l52.76 -43.32c44.55,-34.54 35.31,-32.66 9.85,-45.4 -115.52,-57.81 -103.82,-61.56 -103.82,-4.38 0,21.35 -0.12,42.71 -0.12,64.05z"/>
  <path class="fil1" d="M359.76 790.59l40.39 79.66 -106.09 0.15 65.7 -79.81zm-80.06 97.84c22.56,0 128.53,2.41 142.05,-2.18 4.81,-13.44 -21.85,-56.65 -29,-70.95 -5.92,-11.85 -11.61,-23.04 -17.35,-34.69 -4.1,-8.31 -9.33,-29.96 -27.02,-5.75l-70.48 85.6c-8.42,10.07 -25.15,27.98 1.81,27.98z"/>
  <path class="fil1" d="M870.24 294.2l-0.15 106.1 -79.65 -40.39 79.8 -65.71zm15.85 127.69c4.59,-13.51 2.18,-119.71 2.18,-142.05 0,-34.2 -32.83,3.14 -55.19,20.96l-43.1 35c-38.63,33.49 -39.81,24.64 23.82,56.41 12.01,6 23.05,11.54 34.68,17.36 11.12,5.56 25.22,16.75 37.6,12.31z"/>
  <path class="fil1" d="M1023.85 790.41c6.84,5.55 11.41,11.82 17.21,19.08l48.89 60.61 -105.72 0.34 39.63 -80.03zm-61.54 95.84c13.61,4.64 112.67,2.3 142.04,2.3 34.97,0 -2.76,-32.47 -20.96,-55.31 -3.8,-4.77 -7.38,-9.29 -11.62,-14.44l-36.1 -43.95c-19.2,-26.27 -23.09,-2.13 -43.7,39.11 -7.33,14.66 -34.48,58.81 -29.66,72.29z"/>
  <path class="fil1" d="M870.29 984.38l-0.34 105.73c-5.43,-2.86 -15.43,-11.64 -20.98,-16.43 -12.25,-10.57 -51.24,-40.56 -58.71,-49.67l80.03 -39.63zm14.2 132.71c8.03,-7.87 3.79,-66.22 3.79,-76.64 0,-18.71 2.62,-63.88 -2.18,-77.99 -13.24,-4.73 -54.27,20.66 -68.28,27.67 -37.32,18.65 -66.96,25.6 -47.8,42.31l97.01 79.23c5.36,4.45 9.28,9.66 17.47,5.43z"/>
  <path class="fil1" d="M984.18 513.87l105.82 0.34c-2.86,5.45 -11.65,15.46 -16.46,21.04 -10.56,12.24 -40.57,51.26 -49.69,58.71l-39.67 -80.09zm33.44 105.1c9.93,3.59 12.4,-1.51 17.22,-8.28l37.82 -46.26c4.75,-5.78 8.7,-10.96 12.56,-15.46 4.64,-5.41 8.49,-9.44 12.87,-15.11 10.77,-13.94 30.99,-31.95 13.72,-37.22 -6.47,-1.97 -113.59,-0.7 -117.55,-0.7 -48.6,-0.04 -42.28,-5.4 10.39,99.82 3.34,6.67 8.12,19.47 12.97,23.23z"/>
  <path class="fil0" d="M809.01 851.31c61.77,-18.09 117.48,-78.95 117.48,-159.14 0,-79.2 -56.01,-142.1 -117.53,-159.17 2.79,30.65 21.23,13.19 66.06,62.2 18.4,20.11 35.45,58.26 35.45,96.97 0,53.8 -29.01,101.36 -69.4,127.02 -15.77,10.02 -29.99,9 -32.07,32.11z"/>
  <path class="fil0" d="M575.08 851.34c-2.17,-22.92 -14.81,-21.35 -30.88,-31.37 -40.9,-25.5 -70.64,-73.19 -70.65,-127.8 -0.01,-53.8 29.07,-101.25 69.46,-126.98 15.82,-10.08 29.89,-9.13 32.07,-32.19 -61.67,17.34 -117.51,79.87 -117.51,159.17 0,79.27 55.88,141.86 117.51,159.17z"/>
  <path class="fil1" d="M200.59 728.36l-0.36 -71.72 71.53 34.87 -71.18 36.85zm-13.44 22.68c9.2,2.71 31.45,-11.37 41.13,-16.21 13.72,-6.87 26.22,-13.12 40.03,-20.02 9.04,-4.52 37.2,-13.8 32.98,-25.72 -2.38,-6.73 -67.54,-36.84 -78.35,-42.24 -8.51,-4.25 -34.26,-22.02 -39.75,-9.38 -2.44,5.62 -1,49.09 -1,58.71 0,13.06 -3.99,47.36 4.95,54.86z"/>
  <path class="fil1" d="M691.34 271.94l-34.85 -71.55 71.71 0.36 -36.86 71.19zm0.68 30.62c11.93,-4.12 36.9,-62.62 43.99,-76.8 25.02,-50.04 25.89,-43.41 -43.99,-43.41 -69.88,0 -69.01,-6.63 -43.99,43.41 7.09,14.18 32.06,72.67 43.99,76.8z"/>
  <path class="fil1" d="M692.69 1112.44l34.84 71.49 -71.64 -0.36 36.79 -71.13zm-46.7 89.38c128.37,0 117.75,12.55 82.56,-57.83 -34.75,-69.51 -32.98,-80.12 -56.38,-33.37l-32.03 64.05c-5.49,10.91 -17.38,27.14 5.84,27.14z"/>
  <path class="fil1" d="M1183.75 656.67l0.04 7.48 0.01 56.04 -0.38 8.12 -71.13 -36.81 71.46 -34.83zm13.03 94.29c8.89,-7.56 4.89,-41.79 4.89,-54.79 0,-72.69 7.36,-73.09 -40.47,-49.2 -10.77,5.38 -75.94,35.51 -78.33,42.17 -4.18,11.67 23.93,21.03 32.95,25.54 13.48,6.74 70.94,39.13 80.97,36.27z"/>
  <path class="fil0" d="M1023.85 593.96c9.13,-7.45 39.13,-46.47 49.69,-58.71 4.81,-5.58 13.6,-15.59 16.46,-21.04l-105.82 -0.34 39.67 80.09z"/>
  <path class="fil0" d="M790.25 1024c7.47,9.11 46.46,39.1 58.71,49.67 5.55,4.79 15.56,13.56 20.98,16.43l0.34 -105.73 -80.03 39.63z"/>
  <path class="fil0" d="M984.22 870.44l105.72 -0.34 -48.89 -60.61c-5.8,-7.26 -10.37,-13.52 -17.21,-19.08l-39.63 80.03z"/>
  <polygon class="fil0" points="294.05,870.4 400.15,870.24 359.76,790.59 "/>
  <polygon class="fil0" points="790.44,359.91 870.09,400.3 870.24,294.2 "/>
  <polygon class="fil0" points="513.78,1090.13 593.59,1024.44 513.96,984.09 "/>
  <polygon class="fil0" points="359.76,593.74 400.13,514.07 294.1,514.12 "/>
  <polygon class="fil0" points="593.6,359.91 513.99,294.27 513.96,400.27 "/>
  <polygon class="fil0" points="1112.29,691.5 1183.42,728.31 1183.8,720.19 1183.79,664.15 1183.75,656.67 "/>
  <polygon class="fil0" points="691.34,271.94 728.2,200.75 656.49,200.39 "/>
  <polygon class="fil0" points="271.77,691.51 200.24,656.64 200.59,728.36 "/>
  <polygon class="fil0" points="655.89,1183.58 727.53,1183.94 692.69,1112.44 "/>
 </g>
</svg>
